<svg xmlns="http://www.w3.org/2000/svg" viewBox="0 0 128 128">
  <!-- Ocean background -->
  <rect width="128" height="128" rx="24" fill="#0d4f5c"/>
  <!-- Wave 1 (back) -->
  <path d="M-8 80 C16 68, 32 92, 56 80 C80 68, 96 92, 120 80 C136 72, 140 80, 136 80 L136 128 L-8 128 Z" fill="#0891b2" opacity="0.5"/>
  <!-- Wave 2 (middle) -->
  <path d="M-8 88 C12 76, 36 100, 64 88 C92 76, 116 100, 136 88 L136 128 L-8 128 Z" fill="#06b6d4" opacity="0.7"/>
  <!-- Wave 3 (front) -->
  <path d="M-8 98 C16 86, 40 108, 68 98 C96 88, 116 108, 136 98 L136 128 L-8 128 Z" fill="#67e8f9"/>
  <!-- Subtle sun/glow -->
  <circle cx="64" cy="38" r="18" fill="#f0fdff" opacity="0.15"/>
  <circle cx="64" cy="38" r="10" fill="#e0f9ff" opacity="0.25"/>
</svg>
